PathFileType	4	(X/Y/Z)	outputs\dynamic_markers.trc
DataRate	CameraRate	NumFrames	NumMarkers	Units	OrigDataRate	OrigDataStartFrame	OrigNumFrames
360.000000	360.000000	4	48	m	360.000000	159	639
Frame#	Time	C7			CLAV			LANK			LASI			LBAK			LBHD			LELB			LFHD			LFIN			LFRM			LHEE			LIC			LKNE			LMANK			LMELB			LMKNE			LPSI			LSHO			LTHI			LTIB			LTOE			LUPA			LWRA			LWRB			RANK			RASI			RBAK			RBHD			RELB			RFHD			RFIN			RFRM			RHEE			RIC			RKNE			RMANK			RMELB			RMKNE			RPSI			RSHO			RTHI			RTIB			RTOE			RUPA			RWRA			RWRB			STRN			T10			
		X1	Y1	Z1	X2	Y2	Z2	X3	Y3	Z3	X4	Y4	Z4	X5	Y5	Z5	X6	Y6	Z6	X7	Y7	Z7	X8	Y8	Z8	X9	Y9	Z9	X10	Y10	Z10	X11	Y11	Z11	X12	Y12	Z12	X13	Y13	Z13	X14	Y14	Z14	X15	Y15	Z15	X16	Y16	Z16	X17	Y17	Z17	X18	Y18	Z18	X19	Y19	Z19	X20	Y20	Z20	X21	Y21	Z21	X22	Y22	Z22	X23	Y23	Z23	X24	Y24	Z24	X25	Y25	Z25	X26	Y26	Z26	X27	Y27	Z27	X28	Y28	Z28	X29	Y29	Z29	X30	Y30	Z30	X31	Y31	Z31	X32	Y32	Z32	X33	Y33	Z33	X34	Y34	Z34	X35	Y35	Z35	X36	Y36	Z36	X37	Y37	Z37	X38	Y38	Z38	X39	Y39	Z39	X40	Y40	Z40	X41	Y41	Z41	X42	Y42	Z42	X43	Y43	Z43	X44	Y44	Z44	X45	Y45	Z45	X46	Y46	Z46	X47	Y47	Z47	X48	Y48	Z48	

160	0.4416666666666667	0.09936720132827759	1.647138953208923	0.01235917862504721	0.07763051986694336	1.552220106124878	0.1597399264574051	0.225658655166626	0.3080678880214691	0.09972010552883148	0.2694914638996124	1.112082242965698	0.1025424525141716	0.2457405626773834	1.461309671401978	-0.07050595432519913	0.1008523255586624	1.786863565444946	0.03169608488678932	0.4189092516899109	1.280103445053101	0.2288091778755188	0.1924450695514679	1.840132713317871	0.1264938712120056	0.09660790860652924	1.323362708091736	0.4230847954750061	0.2852165102958679	1.297529220581055	0.3158702552318573	0.1770560145378113	0.3620765507221222	0.0367988608777523	0.3315273225307465	1.174489498138428	0.02023882977664471	0.2368750870227814	0.7285224795341492	0.3856951296329498	0.1127014309167862	0.31056147813797	0.1111275553703308	0.3749012351036072	1.241226434707642	0.1566314101219177	0.1036968529224396	0.7181733250617981	0.3623082637786865	0.2207462787628174	1.131729483604431	-0.110859677195549	0.2771649062633514	1.639063119888306	0.1324619948863983	0.2727012634277344	0.7914382815361023	0.3280151188373566	0.2516392767429352	0.64002925157547	0.3212228417396545	0.1323025673627853	0.2217903286218643	0.2404544204473495	0.3700892329216003	1.464656949043274	0.1917327344417572	0.1486593782901764	1.317672967910767	0.3281354904174805	0.1525005102157593	1.237708330154419	0.3651762306690216	0.004701501689851284	0.07052171230316162	0.0430731400847435	-0.01500706467777491	1.121177673339844	0.04419222101569176	0.05290015041828156	1.447335839271545	-0.1194048598408699	-0.01078708376735449	1.791869640350342	0.1318643391132355	-0.2380213886499405	1.245320916175842	-0.00957198441028595	0.0764579102396965	1.841582655906677	0.2324581146240234	-0.0675823986530304	1.342835307121277	0.2741117775440216	-0.1722927242517471	1.288678884506226	0.1286322176456451	0.06496680527925491	0.06448999792337418	-0.01258485205471516	-0.03348522633314133	1.173231720924377	-0.05244807153940201	-0.01395778264850378	0.5778499841690063	0.1444118320941925	0.1136070489883423	0.05659440532326698	0.05732281506061554	-0.1530680805444717	1.214428544044495	-0.03696095943450928	0.1189639866352081	0.5844143629074097	0.1354155689477921	0.1135844886302948	1.144434213638306	-0.1257677376270294	-0.09172181785106659	1.604637384414673	0.04428782314062119	-0.05114290118217468	0.739704430103302	0.06893892586231232	-0.03768031299114227	0.4413603842258453	0.0810592994093895	0.0722176805138588	0.06351686269044876	0.2761277854442596	-0.1890423446893692	1.430965900421143	0.02066593617200851	-0.04797679558396339	1.306125521659851	0.2209527045488358	-0.1224361732602119	1.269521236419678	0.2514254152774811	0.1098810508847237	1.351958394050598	0.1471525132656097	0.1695962846279144	1.283419847488403	-0.1084579676389694	
161	0.4444444444444445	0.1002727001905441	1.647445678710938	0.01192430220544338	0.07758931815624237	1.552575588226318	0.159308448433876	0.2217502295970917	0.3120602667331696	0.1125922203063965	0.2696923911571503	1.113177537918091	0.1031855940818787	0.2469868510961533	1.461641311645508	-0.07009191811084747	0.1017269790172577	1.787251472473145	0.0315484032034874	0.4184536039829254	1.281248927116394	0.2323796302080154	0.1929472237825394	1.840301752090454	0.1269123256206512	0.09547845274209976	1.326855182647705	0.4248054921627045	0.284548282623291	1.299685001373291	0.3185930550098419	0.1748358309268951	0.3660638630390167	0.04844608157873154	0.3320854902267456	1.175166606903076	0.02121275849640369	0.2334235161542892	0.7370490431785583	0.3926052451133728	0.108728751540184	0.3163374662399292	0.1226202175021172	0.3746875524520874	1.241713047027588	0.1602081954479218	0.09998036921024323	0.7269302606582642	0.3679364621639252	0.2220495343208313	1.131644487380981	-0.1106120124459267	0.2772561609745026	1.639469623565674	0.1330411434173584	0.2697737216949463	0.7985713481903076	0.3339067101478577	0.2479479014873505	0.6472575068473816	0.329855889081955	0.125586986541748	0.2283698469400406	0.2533456683158875	0.3698605895042419	1.465470910072327	0.1936821043491364	0.1479262411594391	1.320091724395752	0.3301258981227875	0.1515474170446396	1.240489482879639	0.3681691288948059	0.004799460526555777	0.07053566724061966	0.0430629551410675	-0.01442150585353374	1.121931672096252	0.0429813526570797	0.05443523451685905	1.447689771652222	-0.1200714185833931	-0.01043765246868134	1.792346954345703	0.13114033639431	-0.2386223673820496	1.246530652046204	-0.01058046519756317	0.07649405300617218	1.841673016548157	0.2322307825088501	-0.06972759962081909	1.345301628112793	0.2737026810646057	-0.1735626310110092	1.290466070175171	0.1279699951410294	0.06505635380744934	0.06449941545724869	-0.01254150830209255	-0.03233689069747925	1.173621892929077	-0.05381232500076294	-0.01436980254948139	0.5780777931213379	0.1432618349790573	0.1136922016739845	0.05653080344200134	0.05738301575183868	-0.153434157371521	1.215052247047424	-0.03714490681886673	0.1185685396194458	0.5844019651412964	0.1348828375339508	0.115307942032814	1.144339442253113	-0.1259297132492065	-0.09105931222438812	1.605338931083679	0.04272482544183731	-0.05102508515119553	0.740141749382019	0.06768226623535156	-0.03775626793503761	0.4414032697677612	0.08003224432468414	0.07196522504091263	0.06350152194499969	0.2761998772621155	-0.1887792944908142	1.432113885879517	0.0187448188662529	-0.04987230524420738	1.308052778244019	0.2208531498908997	-0.1247414350509644	1.271862983703613	0.2511629462242126	0.1098591461777687	1.352433204650879	0.1469164937734604	0.1709383279085159	1.28380823135376	-0.108744204044342	
162	0.4472222222222222	0.1011750549077988	1.647834062576294	0.01156012341380119	0.07751749455928802	1.552967309951782	0.1589497923851013	0.2176645398139954	0.3160215318202972	0.1256719678640366	0.2698062360286713	1.114281415939331	0.1037805750966072	0.2483013719320297	1.46194314956665	-0.06948994100093842	0.1026843264698982	1.787756681442261	0.03142717108130455	0.4179064929485321	1.282447338104248	0.235799178481102	0.193401575088501	1.840514540672302	0.127297043800354	0.09433411061763763	1.330368518829346	0.4264119565486908	0.2837093770503998	1.301920652389526	0.3212544620037079	0.1722037792205811	0.3700907528400421	0.06028110533952713	0.3326666057109833	1.175945639610291	0.02216632477939129	0.2297111451625824	0.7457010746002197	0.3991860747337341	0.1045483201742172	0.3222711086273193	0.1344185471534729	0.3745186626911163	1.242359042167664	0.1639970541000366	0.09648995101451874	0.7356854677200317	0.3733701109886169	0.2235569357872009	1.131552577018738	-0.1102286651730537	0.2773853838443756	1.639927268028259	0.1335967183113098	0.2669506967067719	0.8059512376785278	0.3396344482898712	0.2441425174474716	0.6547378301620483	0.3383575677871704	0.1187191605567932	0.235312432050705	0.2663182318210602	0.3695475161075592	1.466419458389282	0.1955666244029999	0.1471717804670334	1.322692394256592	0.3319945335388184	0.15052330493927	1.243256211280823	0.371048629283905	0.00490977056324482	0.07055105268955231	0.04307116940617561	-0.01383171230554581	1.122680187225342	0.04172375053167343	0.05592391639947891	1.448042035102844	-0.1206888183951378	-0.01009405590593815	1.792794585227966	0.1305000782012939	-0.2391945719718933	1.24777090549469	-0.01163970027118921	0.0764956921339035	1.841793775558472	0.2320204228162766	-0.07187583297491074	1.347729921340942	0.2732676267623901	-0.1750598251819611	1.29241406917572	0.127133697271347	0.06515752524137497	0.06449750065803528	-0.01248565036803484	-0.03115909546613693	1.174112558364868	-0.05527627840638161	-0.0147717297077179	0.5782715082168579	0.1420908719301224	0.113801047205925	0.0565061941742897	0.05740086734294891	-0.1538725793361664	1.215701460838318	-0.03730813413858414	0.1182264313101768	0.5844203233718872	0.1343359649181366	0.1170152202248573	1.144279718399048	-0.1262314468622208	-0.09036760777235031	1.606050610542297	0.0412769541144371	-0.05093035846948624	0.7407020926475525	0.06642811000347137	-0.03777187317609787	0.4414228200912476	0.07903172820806503	0.07170985639095306	0.06350627541542053	0.2762599587440491	-0.1885512173175812	1.43326735496521	0.01682570762932301	-0.05198337882757187	1.310065984725952	0.2208112627267838	-0.1269973069429398	1.274408102035522	0.2508389055728912	0.1097424179315567	1.352999210357666	0.1466307491064072	0.1723213791847229	1.284218430519104	-0.1090339422225952	
163	0.45	0.1020021736621857	1.64813768863678	0.01112154964357615	0.07757963240146637	1.553346037864685	0.1584981381893158	0.2134637236595154	0.3201010823249817	0.1388395726680756	0.2699199914932251	1.115333318710327	0.1043877601623535	0.249518096446991	1.462303161621094	-0.06893354654312134	0.1036540567874908	1.788213610649109	0.03127305209636688	0.4175282120704651	1.283829808235168	0.2395211607217789	0.1938443034887314	1.840755105018616	0.1276334524154663	0.0931568518280983	1.333925724029541	0.4282403588294983	0.2830701172351837	1.304128050804138	0.3240339159965515	0.1695464998483658	0.3741846680641174	0.07188257575035095	0.3331968486309052	1.176925539970398	0.02291307225823402	0.2260850816965103	0.7544044852256775	0.4053049981594086	0.1003919318318367	0.3281430602073669	0.1461325883865356	0.3744264543056488	1.243176698684692	0.1674565225839615	0.09300324320793152	0.7445442676544189	0.3786228895187378	0.2249840348958969	1.131514549255371	-0.1098622381687164	0.2775022089481354	1.640306949615479	0.1341879814863205	0.2641937136650085	0.8130934238433838	0.3448020815849304	0.2404173761606216	0.6623209118843079	0.3467636108398438	0.1118529140949249	0.2425496131181717	0.2791603803634644	0.3693827390670776	1.46745753288269	0.1976990252733231	0.1464486718177795	1.325194358825684	0.3340423107147217	0.1494234353303909	1.24651563167572	0.3736554384231567	0.004994118586182594	0.07059311121702194	0.04305325448513031	-0.01324927620589733	1.123418092727661	0.04046411439776421	0.05742229893803596	1.448424935340881	-0.1214156448841095	-0.009738304652273655	1.793285965919495	0.1297917366027832	-0.2396790087223053	1.249004602432251	-0.01260951533913612	0.07645828276872635	1.841943979263306	0.2318562716245651	-0.07419843226671219	1.350257873535156	0.2728173434734344	-0.1765148788690567	1.29434871673584	0.1262895464897156	0.06526836007833481	0.06450368463993073	-0.01243252959102392	-0.02984760329127312	1.174524545669556	-0.0566813163459301	-0.01524252910166979	0.5784673690795898	0.140929251909256	0.1138764843344688	0.0564153827726841	0.05747805535793304	-0.1544673889875412	1.216380834579468	-0.03730697929859161	0.1179043799638748	0.5844529271125793	0.1340159773826599	0.1186664775013924	1.14416491985321	-0.1266724020242691	-0.08953768014907837	1.606682538986206	0.03971568495035172	-0.05071143060922623	0.7409781813621521	0.0651497021317482	-0.03776290640234947	0.4413792788982391	0.07807198911905289	0.07143186032772064	0.06352556496858597	0.2762471437454224	-0.1883612424135208	1.434409260749817	0.01493596564978361	-0.05391550064086914	1.312008142471313	0.2208658903837204	-0.1292403638362885	1.277033090591431	0.2504285573959351	0.1097779795527458	1.353291153907776	0.1466121077537537	0.1737534701824188	1.284626007080078	-0.1092704460024834	
